<svg width="386" height="710" viewBox="0 0 386 710" fill="none" xmlns="http://www.w3.org/2000/svg">
  <path
    d="M196.275 0.0379887C196.551 0.036866 196.826 0.0357433 197.11 0.0345866C198.577 0.0286781 200.043 0.0249878 201.509 0.0232532C202.689 0.0215328 203.869 0.0160921 205.048 0.00696653C216.053 -0.0762812 226.908 0.579064 237.774 2.37706C238.08 2.42656 238.386 2.47607 238.702 2.52707C249.721 4.31853 260.459 6.98006 271.051 10.4428C271.531 10.5995 272.012 10.7561 272.506 10.9175C279.394 13.1872 286.062 15.8047 292.658 18.7816C293.081 18.971 293.504 19.1604 293.94 19.3555C311.134 27.0868 327.316 37.2056 341.58 49.3571C341.878 49.6074 342.175 49.8577 342.482 50.1155C343.273 50.7843 344.059 51.459 344.842 52.1366C345.331 52.5582 345.331 52.5582 345.831 52.9882C347.756 54.6585 349.612 56.3683 351.419 58.1596C352.131 58.8397 352.864 59.4609 353.632 60.0783C354.95 61.1527 356.036 62.3508 357.147 63.6242C357.905 64.4656 358.699 65.2501 359.518 66.0346C361.1 67.5576 362.562 69.1506 364.003 70.7996C364.343 71.1845 364.684 71.5694 365.035 71.966C370.769 78.4742 376.123 85.4036 380.864 92.6341C381.569 93.6978 382.311 94.7135 383.097 95.7211C386.927 100.859 387.057 105.446 386.977 111.637C386.981 112.67 386.986 113.703 386.993 114.736C387.005 116.979 387.001 119.222 386.985 121.466C386.963 124.824 386.966 128.182 386.974 131.54C386.987 137.265 386.98 142.989 386.96 148.713C386.94 154.512 386.931 160.31 386.933 166.108C386.933 166.475 386.933 166.841 386.933 167.219C386.934 169.089 386.935 170.959 386.936 172.828C386.942 186.35 386.926 199.872 386.9 213.394C386.873 226.783 386.856 240.172 386.851 253.561C386.851 254.185 386.851 254.185 386.85 254.822C386.849 258.621 386.848 262.421 386.847 266.22C386.844 275.664 386.839 285.109 386.834 294.553C386.834 294.984 386.834 295.414 386.833 295.857C386.822 316.771 386.793 337.685 386.764 358.599C386.753 365.855 386.743 373.112 386.733 380.368C386.733 380.818 386.732 381.268 386.732 381.732C386.703 402.659 386.686 423.586 386.673 444.512C386.672 445.871 386.671 447.23 386.67 448.589C386.664 457.593 386.658 466.598 386.653 475.603C386.642 493.519 386.629 511.436 386.616 529.353C386.616 530.206 386.615 531.059 386.614 531.913C386.586 570.317 386.544 608.722 386.497 647.126C386.496 647.486 386.496 647.845 386.495 648.216C386.473 666.198 386.45 684.181 386.425 702.163C385.914 702.354 385.401 702.544 384.889 702.734C384.603 702.84 384.318 702.946 384.024 703.055C382.74 703.502 381.436 703.8 380.108 704.096C379.681 704.191 379.681 704.191 379.246 704.288C378.319 704.493 377.391 704.694 376.463 704.893C375.979 704.997 375.979 704.997 375.485 705.103C368.709 706.552 361.921 707.706 355.034 708.516C354.619 708.566 354.619 708.566 354.195 708.616C337.912 710.511 321.165 710.443 304.889 708.516C304.611 708.484 304.332 708.451 304.046 708.417C291.048 706.865 278.206 704.119 265.751 700.178C265.035 699.952 265.035 699.952 264.305 699.722C236.779 690.961 210.239 676.756 188.954 657.457C188.388 656.95 187.82 656.445 187.234 655.96C184.571 653.755 182.122 651.343 179.656 648.933C178.891 648.186 178.124 647.441 177.357 646.696C174.936 644.34 172.554 641.98 170.354 639.424C169.996 639.023 169.639 638.622 169.28 638.222C150.413 616.763 138.196 592.199 127.362 566.241C125.589 561.997 123.791 557.763 121.992 553.53C119.605 547.908 117.225 542.283 114.858 536.654C112.646 531.395 110.42 526.142 108.182 520.894C105.81 515.33 103.451 509.76 101.107 504.185C98.855 498.831 96.5905 493.482 94.3208 488.135C91.9345 482.513 89.5544 476.888 87.1864 471.259C84.8427 465.688 82.489 460.121 80.1284 454.556C79.9669 454.176 79.8053 453.795 79.6389 453.403C78.4859 450.685 77.3325 447.967 76.179 445.25C74.8622 442.148 73.5457 439.045 72.2295 435.943C72.0679 435.562 71.9063 435.181 71.7398 434.789C69.4099 429.296 67.0893 423.8 64.776 418.301C62.3756 412.595 59.9601 406.895 57.5412 401.197C55.3027 395.923 53.0725 390.646 50.8517 385.365C48.6402 380.106 46.4135 374.853 44.1759 369.605C41.8035 364.041 39.4451 358.471 37.1005 352.896C34.8488 347.542 32.5843 342.193 30.3147 336.846C27.7957 330.911 25.2846 324.974 22.7855 319.031C20.8713 314.48 18.9467 309.933 17.0161 305.389C2.6183 271.497 -8.2539 238.76 8.41497 126.83C16.3667 108.297 26.9443 90.9268 40.1235 75.463C40.9501 74.4878 41.7583 73.4985 42.5706 72.512C44.49 70.2313 46.5402 68.0803 48.611 65.9309C49.2826 65.2292 49.9468 64.5214 50.6096 63.8118C54.1965 59.9903 57.9953 56.4318 61.9101 52.9308C62.3021 52.5781 62.6941 52.2255 63.0981 51.8621C65.4804 49.7443 67.9483 47.7396 70.4714 45.7833C70.7299 45.5821 70.9884 45.381 71.2547 45.1737C101.37 21.8126 137.985 6.27145 196.275 0.0379887Z"
    fill="#F8C649" />
</svg>
