<svg width="35" height="48" viewBox="0 0 35 48" fill="none" xmlns="http://www.w3.org/2000/svg">
<path fill-rule="evenodd" clip-rule="evenodd" d="M0.25 6.95028C0.25 3.57788 2.86996 0.844002 6.10185 0.844002C9.33374 0.844002 11.9537 3.57788 11.9537 6.95028C11.9537 10.3227 9.33374 13.0565 6.10185 13.0565C2.86996 13.0565 0.25 10.3227 0.25 6.95028ZM34.7211 23.3085C34.7211 19.9361 32.1011 17.2022 28.8692 17.2022H6.10193C5.30183 17.2022 4.53924 17.3697 3.84462 17.6731C1.73336 18.5949 0.25 20.771 0.25 23.3085V41.7137C0.25 45.0861 2.86996 47.8199 6.10185 47.8199C9.33374 47.8199 11.9537 45.0861 11.9537 41.7137V29.4148H23.0173V41.7136C23.0173 45.086 25.6373 47.8199 28.8692 47.8199C32.101 47.8199 34.721 45.086 34.721 41.7136V23.3407L34.7211 23.3085ZM28.8692 0.844002C25.6373 0.844002 23.0173 3.57788 23.0173 6.95028C23.0173 10.3227 25.6373 13.0565 28.8692 13.0565C32.101 13.0565 34.721 10.3227 34.721 6.95028C34.721 3.57788 32.101 0.844002 28.8692 0.844002Z" fill="black"/>
</svg>
